<svg data-v-423bf9ae="" xmlns="http://www.w3.org/2000/svg" viewBox="0 0 240.93294372014728 60" class="font"><!----><!----><defs data-v-423bf9ae=""><linearGradient data-v-423bf9ae="" gradientTransform="rotate(25)" id="180a567c-1795-467d-a1f3-580f33ffaaaa" x1="0%" y1="0%" x2="100%" y2="0%"><stop data-v-423bf9ae="" offset="0%" style="stop-color: rgb(30, 11, 54); stop-opacity: 1;"></stop><stop data-v-423bf9ae="" offset="100%" style="stop-color: rgb(202, 55, 130); stop-opacity: 1;"></stop></linearGradient></defs><g data-v-423bf9ae="" id="2b982e02-7313-4ce7-823d-a5b7e04b0da5" fill="url(#180a567c-1795-467d-a1f3-580f33ffaaaa)" transform="matrix(5.830903811703725,0,0,5.830903811703725,-5.772591917768523,-12.6530621930969)"><path d="M0.99 3.91L0.99 2.17L2.91 2.17L2.91 3.91L0.99 3.91ZM0.99 12.29L0.99 4.93L2.91 4.93L2.91 12.29L0.99 12.29ZM7.15 12.29L7.15 4.44L4.19 4.44L4.19 2.69L12.15 2.69L12.15 4.44L9.18 4.44L9.18 12.29L7.15 12.29ZM16.72 12.46L16.72 12.46Q14.83 12.46 13.90 11.52L13.90 11.52L13.90 11.52Q12.98 10.58 12.98 8.61L12.98 8.61L12.98 8.61Q12.98 6.64 13.90 5.70L13.90 5.70L13.90 5.70Q14.83 4.76 16.72 4.76L16.72 4.76L16.72 4.76Q18.61 4.76 19.54 5.70L19.54 5.70L19.54 5.70Q20.47 6.64 20.47 8.61L20.47 8.61L20.47 8.61Q20.47 10.58 19.54 11.52L19.54 11.52L19.54 11.52Q18.61 12.46 16.72 12.46L16.72 12.46ZM16.72 10.89L16.72 10.89Q17.65 10.89 18.07 10.35L18.07 10.35L18.07 10.35Q18.49 9.81 18.49 8.72L18.49 8.72L18.49 8.50L18.49 8.50Q18.49 7.41 18.07 6.87L18.07 6.87L18.07 6.87Q17.65 6.33 16.72 6.33L16.72 6.33L16.72 6.33Q15.78 6.33 15.37 6.87L15.37 6.87L15.37 6.87Q14.95 7.41 14.95 8.50L14.95 8.50L14.95 8.72L14.95 8.72Q14.95 9.81 15.37 10.35L15.37 10.35L15.37 10.35Q15.78 10.89 16.72 10.89L16.72 10.89ZM24.39 12.46L24.39 12.46Q23.25 12.46 22.60 11.84L22.60 11.84L22.60 11.84Q21.95 11.23 21.95 9.87L21.95 9.87L21.95 4.93L23.87 4.93L23.87 9.46L23.87 9.46Q23.87 10.15 24.19 10.46L24.19 10.46L24.19 10.46Q24.51 10.77 25.14 10.77L25.14 10.77L25.14 10.77Q25.79 10.77 26.21 10.31L26.21 10.31L26.21 10.31Q26.64 9.86 26.64 9.18L26.64 9.18L26.64 4.93L28.56 4.93L28.56 12.29L26.92 12.29L26.78 11.33L26.68 11.33L26.68 11.33Q25.79 12.46 24.39 12.46L24.39 12.46ZM30.55 12.29L30.55 4.93L32.19 4.93L32.34 6.12L32.44 6.12L32.44 6.12Q32.68 5.49 33.05 5.12L33.05 5.12L33.05 5.12Q33.43 4.76 34.05 4.76L34.05 4.76L34.05 4.76Q34.31 4.76 34.52 4.81L34.52 4.81L34.52 4.81Q34.72 4.86 34.78 4.89L34.78 4.89L34.78 6.68L34.24 6.68L34.24 6.68Q33.31 6.68 32.89 7.19L32.89 7.19L32.89 7.19Q32.47 7.70 32.47 8.74L32.47 8.74L32.47 12.29L30.55 12.29ZM38.93 12.46L38.93 12.46Q37.39 12.46 36.52 11.82L36.52 11.82L36.52 11.82Q35.64 11.19 35.64 10.12L35.64 10.12L35.66 9.95L37.52 9.95L37.52 10.05L37.52 10.05Q37.53 10.54 37.96 10.76L37.96 10.76L37.96 10.76Q38.39 10.98 39.00 10.98L39.00 10.98L39.00 10.98Q39.58 10.98 39.98 10.82L39.98 10.82L39.98 10.82Q40.39 10.67 40.39 10.32L40.39 10.32L40.39 10.32Q40.39 9.93 39.98 9.73L39.98 9.73L39.98 9.73Q39.56 9.53 38.68 9.34L38.68 9.34L38.68 9.34Q37.77 9.13 37.20 8.91L37.20 8.91L37.20 8.91Q36.62 8.69 36.20 8.23L36.20 8.23L36.20 8.23Q35.78 7.77 35.78 7L35.78 7L35.78 7Q35.78 5.92 36.69 5.34L36.69 5.34L36.69 5.34Q37.59 4.76 39.02 4.76L39.02 4.76L39.02 4.76Q40.35 4.76 41.22 5.30L41.22 5.30L41.22 5.30Q42.08 5.84 42.08 6.76L42.08 6.76L42.07 7.08L40.21 7.08L40.21 7.06L40.21 7.06Q40.19 6.65 39.86 6.45L39.86 6.45L39.86 6.45Q39.52 6.24 38.95 6.24L38.95 6.24L38.95 6.24Q38.37 6.24 38.04 6.40L38.04 6.40L38.04 6.40Q37.70 6.55 37.70 6.83L37.70 6.83L37.70 6.83Q37.70 7.18 38.09 7.35L38.09 7.35L38.09 7.35Q38.47 7.52 39.33 7.69L39.33 7.69L39.33 7.69Q40.26 7.90 40.85 8.11L40.85 8.11L40.85 8.11Q41.44 8.32 41.87 8.79L41.87 8.79L41.87 8.79Q42.31 9.27 42.31 10.08L42.31 10.08L42.31 10.08Q42.31 12.46 38.93 12.46L38.93 12.46Z"></path></g><!----><!----></svg>